<?xml version="1.0" encoding="UTF-8"?>
<svg id="Layer_2" data-name="Layer 2" xmlns="http://www.w3.org/2000/svg" viewBox="0 0 432.47 506.88">
  <defs>
    <style>
      .cls-1 {
        fill: #295b46;
        stroke-width: 0px;
      }
    </style>
  </defs>
  <g id="Layer_1-2" data-name="Layer 1">
    <g>
      <g>
        <path class="cls-1" d="m399.8,351.84c1.43-9.72,2.17-19.83,2.17-30.35V7.69h-70.4v181.91l68.24,162.24Z"/>
        <path class="cls-1" d="m281.01,412.07c-1.77,1.14-3.58,2.25-5.44,3.31-17.21,9.84-37,14.75-59.34,14.75s-40.68-4.91-57.66-14.75c-4.92-2.84-9.54-5.98-13.9-9.38l-27.86,68.21c1.71.98,3.45,1.93,5.21,2.86,27.93,14.75,59.34,22.13,94.21,22.13,32.94,0,63.24-6.96,90.94-20.83l-26.16-66.3Z"/>
        <path class="cls-1" d="m102.24,188.38V7.69H30.5v313.8c0,10.76.76,21.1,2.26,31.03l69.49-164.16Z"/>
      </g>
      <polygon class="cls-1" points="432.47 506.88 350.67 506.88 302.79 385.53 278.72 324.51 213.3 158.72 145.53 324.51 120.62 385.53 71.07 506.88 0 506.88 214.56 0 219.27 0 432.47 506.88"/>
      <path class="cls-1" d="m116.49,478.39c.76,2.06,1.56,4.1,2.41,6.11l-2.41-6.11Z"/>
    </g>
  </g>
</svg>