<svg width="15" height="18" viewBox="0 0 15 18" fill="none" xmlns="http://www.w3.org/2000/svg">
<path d="M12.2813 6.375H10.625V1.16667C10.625 0.59375 10.1563 0.125 9.58337 0.125H5.41671C4.84379 0.125 4.37504 0.59375 4.37504 1.16667V6.375H2.71879C1.79171 6.375 1.32296 7.5 1.97921 8.15625L6.76046 12.9375C7.16671 13.3438 7.82296 13.3438 8.22921 12.9375L13.0105 8.15625C13.6667 7.5 13.2084 6.375 12.2813 6.375ZM0.208374 16.7917C0.208374 17.3646 0.677124 17.8333 1.25004 17.8333H13.75C14.323 17.8333 14.7917 17.3646 14.7917 16.7917C14.7917 16.2188 14.323 15.75 13.75 15.75H1.25004C0.677124 15.75 0.208374 16.2188 0.208374 16.7917Z" fill="#6FA54A"/>
</svg>
