<svg width="21" height="17" viewBox="0 0 21 17" fill="none" xmlns="http://www.w3.org/2000/svg">
<path d="M2.16671 16.8333C1.59379 16.8333 1.10351 16.6295 0.695874 16.2218C0.288235 15.8142 0.0840685 15.3236 0.083374 14.75V2.24996C0.083374 1.67704 0.287541 1.18676 0.695874 0.779126C1.10421 0.371487 1.59449 0.16732 2.16671 0.166626H18.8334C19.4063 0.166626 19.8969 0.370792 20.3052 0.779126C20.7136 1.18746 20.9174 1.67774 20.9167 2.24996V14.75C20.9167 15.3229 20.7129 15.8135 20.3052 16.2218C19.8976 16.6302 19.407 16.834 18.8334 16.8333H2.16671ZM10.5 9.54163L18.8334 4.33329V2.24996L10.5 7.45829L2.16671 2.24996V4.33329L10.5 9.54163Z" fill="#EAF2E3"/>
</svg>
