<svg width="23" height="23" viewBox="0 0 23 23" fill="none" xmlns="http://www.w3.org/2000/svg">
<path fill-rule="evenodd" clip-rule="evenodd" d="M5.05356 0.405396C3.82062 0.405395 2.63814 0.89506 1.76615 1.76672C0.894156 2.63838 0.404038 3.82066 0.403564 5.05361V17.4536C0.403564 18.6869 0.893474 19.8696 1.76552 20.7417C2.63756 21.6137 3.82031 22.1036 5.05356 22.1036H17.4536C18.6865 22.1031 19.8688 21.613 20.7405 20.741C21.6121 19.869 22.1018 18.6866 22.1018 17.4536V5.05361C22.1013 3.82097 21.6114 2.63896 20.7398 1.76735C19.8682 0.895742 18.6862 0.405869 17.4536 0.405396H5.05356ZM18.7911 5.06075C18.7911 5.41595 18.65 5.75661 18.3988 6.00777C18.1476 6.25894 17.807 6.40004 17.4518 6.40004C17.0966 6.40004 16.7559 6.25894 16.5048 6.00777C16.2536 5.75661 16.1125 5.41595 16.1125 5.06075C16.1125 4.70555 16.2536 4.3649 16.5048 4.11373C16.7559 3.86257 17.0966 3.72147 17.4518 3.72147C17.807 3.72147 18.1476 3.86257 18.3988 4.11373C18.65 4.3649 18.7911 4.70555 18.7911 5.06075ZM11.2553 7.53932C10.2703 7.53932 9.32552 7.93065 8.62895 8.62721C7.93239 9.32378 7.54106 10.2685 7.54106 11.2536C7.54106 12.2387 7.93239 13.1834 8.62895 13.88C9.32552 14.5766 10.2703 14.9679 11.2553 14.9679C12.2404 14.9679 13.1852 14.5766 13.8817 13.88C14.5783 13.1834 14.9696 12.2387 14.9696 11.2536C14.9696 10.2685 14.5783 9.32378 13.8817 8.62721C13.1852 7.93065 12.2404 7.53932 11.2553 7.53932ZM5.75356 11.2536C5.75356 9.79492 6.33303 8.39597 7.36448 7.36452C8.39593 6.33307 9.79487 5.75361 11.2536 5.75361C12.7123 5.75361 14.1112 6.33307 15.1427 7.36452C16.1741 8.39597 16.7536 9.79492 16.7536 11.2536C16.7536 12.7123 16.1741 14.1112 15.1427 15.1427C14.1112 16.1741 12.7123 16.7536 11.2536 16.7536C9.79487 16.7536 8.39593 16.1741 7.36448 15.1427C6.33303 14.1112 5.75356 12.7123 5.75356 11.2536Z" fill="#EAF2E3"/>
</svg>
